solid STL generated by MeshLab
  facet normal -2.707921e-004 -1.148758e-003 -9.999993e-001
    outer loop
      vertex  1.472430e+000 4.353450e+001 3.728020e+000
      vertex  1.809870e+000 4.295000e+001 3.728600e+000
      vertex  1.567260e+000 4.253710e+001 3.729140e+000
    endloop
  endfacet
  facet normal -2.575464e-004 -1.147498e-003 -9.999992e-001
    outer loop
      vertex  1.567260e+000 4.253710e+001 3.729140e+000
      vertex  1.231810e+000 4.311790e+001 3.728560e+000
      vertex  1.472430e+000 4.353450e+001 3.728020e+000
    endloop
  endfacet
  facet normal 8.660021e-001 5.000400e-001 -6.044700e-004
    outer loop
      vertex  1.472430e+000 4.353450e+001 3.728020e+000
      vertex  1.472490e+000 4.353470e+001 3.978020e+000
      vertex  1.809930e+000 4.295030e+001 3.978570e+000
    endloop
  endfacet
  facet normal 8.660389e-001 4.999761e-001 -8.028794e-004
    outer loop
      vertex  1.809930e+000 4.295030e+001 3.978570e+000
      vertex  1.809870e+000 4.295000e+001 3.728600e+000
      vertex  1.472430e+000 4.353450e+001 3.728020e+000
    endloop
  endfacet
  facet normal -2.499732e-004 -1.151872e-003 -9.999993e-001
    outer loop
      vertex  1.472430e+000 4.353450e+001 3.728020e+000
      vertex  1.231810e+000 4.311790e+001 3.728560e+000
      vertex  9.912700e-001 4.353460e+001 3.728140e+000
    endloop
  endfacet
  facet normal -2.499683e-004 -1.127779e-003 -9.999993e-001
    outer loop
      vertex  9.912700e-001 4.353460e+001 3.728140e+000
      vertex  1.231990e+000 4.395120e+001 3.727610e+000
      vertex  1.472430e+000 4.353450e+001 3.728020e+000
    endloop
  endfacet
  facet normal 8.661523e-001 4.997797e-001 -6.042996e-004
    outer loop
      vertex  1.472490e+000 4.353470e+001 3.978020e+000
      vertex  1.472430e+000 4.353450e+001 3.728020e+000
      vertex  1.231990e+000 4.395120e+001 3.727610e+000
    endloop
  endfacet
  facet normal 8.662058e-001 4.996868e-001 -8.100717e-004
    outer loop
      vertex  1.231990e+000 4.395120e+001 3.727610e+000
      vertex  1.232050e+000 4.395150e+001 3.977620e+000
      vertex  1.472490e+000 4.353470e+001 3.978020e+000
    endloop
  endfacet
  facet normal -2.705224e-004 -1.091795e-003 -9.999994e-001
    outer loop
      vertex  3.044830e-002 4.603520e+001 3.725640e+000
      vertex  2.707430e-001 4.561840e+001 3.726030e+000
      vertex  2.991450e-002 4.520180e+001 3.726550e+000
    endloop
  endfacet
  facet normal -2.293460e-004 -1.091822e-003 -9.999994e-001
    outer loop
      vertex  2.991450e-002 4.520180e+001 3.726550e+000
      vertex  -2.103810e-001 4.561870e+001 3.726150e+000
      vertex  3.044830e-002 4.603520e+001 3.725640e+000
    endloop
  endfacet
  facet normal -8.656988e-001 5.005654e-001 -1.977457e-004
    outer loop
      vertex  3.050810e-002 4.603540e+001 3.975640e+000
      vertex  3.044830e-002 4.603520e+001 3.725640e+000
      vertex  -2.103810e-001 4.561870e+001 3.726150e+000
    endloop
  endfacet
  facet normal -8.656989e-001 5.005651e-001 -1.970230e-004
    outer loop
      vertex  -2.103810e-001 4.561870e+001 3.726150e+000
      vertex  -2.103210e-001 4.561890e+001 3.976150e+000
      vertex  3.050810e-002 4.603540e+001 3.975640e+000
    endloop
  endfacet
  facet normal 8.663363e-001 4.994607e-001 -6.111437e-004
    outer loop
      vertex  3.044830e-002 4.603520e+001 3.725640e+000
      vertex  3.050810e-002 4.603540e+001 3.975640e+000
      vertex  2.708030e-001 4.561860e+001 3.976040e+000
    endloop
  endfacet
  facet normal 8.663345e-001 4.994639e-001 -6.041723e-004
    outer loop
      vertex  2.708030e-001 4.561860e+001 3.976040e+000
      vertex  2.707430e-001 4.561840e+001 3.726030e+000
      vertex  3.044830e-002 4.603520e+001 3.725640e+000
    endloop
  endfacet
  facet normal -2.316755e-004 -1.141073e-003 -9.999993e-001
    outer loop
      vertex  -1.414730e+000 4.353630e+001 3.728710e+000
      vertex  -1.174650e+000 4.311940e+001 3.729130e+000
      vertex  -1.510840e+000 4.253910e+001 3.729870e+000
    endloop
  endfacet
  facet normal -2.150467e-004 -1.142676e-003 -9.999993e-001
    outer loop
      vertex  -1.510840e+000 4.253910e+001 3.729870e+000
      vertex  -1.752930e+000 4.295230e+001 3.729450e+000
      vertex  -1.414730e+000 4.353630e+001 3.728710e+000
    endloop
  endfacet
  facet normal -8.653654e-001 5.011413e-001 -4.235726e-004
    outer loop
      vertex  -1.414680e+000 4.353660e+001 3.978700e+000
      vertex  -1.414730e+000 4.353630e+001 3.728710e+000
      vertex  -1.752930e+000 4.295230e+001 3.729450e+000
    endloop
  endfacet
  facet normal -8.653719e-001 5.011301e-001 -3.885132e-004
    outer loop
      vertex  -1.752930e+000 4.295230e+001 3.729450e+000
      vertex  -1.752870e+000 4.295260e+001 3.979420e+000
      vertex  -1.414680e+000 4.353660e+001 3.978700e+000
    endloop
  endfacet
  facet normal -2.293614e-004 -1.116043e-003 -9.999993e-001
    outer loop
      vertex  -1.414730e+000 4.353630e+001 3.728710e+000
      vertex  -1.173760e+000 4.395270e+001 3.728190e+000
      vertex  -9.335770e-001 4.353590e+001 3.728600e+000
    endloop
  endfacet
  facet normal -2.293811e-004 -1.139751e-003 -9.999993e-001
    outer loop
      vertex  -9.335770e-001 4.353590e+001 3.728600e+000
      vertex  -1.174650e+000 4.311940e+001 3.729130e+000
      vertex  -1.414730e+000 4.353630e+001 3.728710e+000
    endloop
  endfacet
  facet normal -8.655203e-001 5.008736e-001 -4.232230e-004
    outer loop
      vertex  -1.414730e+000 4.353630e+001 3.728710e+000
      vertex  -1.414680e+000 4.353660e+001 3.978700e+000
      vertex  -1.173710e+000 4.395300e+001 3.978190e+000
    endloop
  endfacet
  facet normal -8.655204e-001 5.008734e-001 -4.227931e-004
    outer loop
      vertex  -1.173710e+000 4.395300e+001 3.978190e+000
      vertex  -1.173760e+000 4.395270e+001 3.728190e+000
      vertex  -1.414730e+000 4.353630e+001 3.728710e+000
    endloop
  endfacet
  facet normal -2.290285e-004 -1.139606e-003 -9.999993e-001
    outer loop
      vertex  -9.335770e-001 4.353590e+001 3.728600e+000
      vertex  -6.933920e-001 4.311900e+001 3.729020e+000
      vertex  -9.345530e-001 4.270260e+001 3.729550e+000
    endloop
  endfacet
  facet normal -2.296336e-004 -1.139605e-003 -9.999993e-001
    outer loop
      vertex  -9.345530e-001 4.270260e+001 3.729550e+000
      vertex  -1.174650e+000 4.311940e+001 3.729130e+000
      vertex  -9.335770e-001 4.353590e+001 3.728600e+000
    endloop
  endfacet
  facet normal -2.293390e-004 -1.116065e-003 -9.999993e-001
    outer loop
      vertex  -9.335770e-001 4.353590e+001 3.728600e+000
      vertex  -6.926230e-001 4.395230e+001 3.728080e+000
      vertex  -4.523770e-001 4.353550e+001 3.728490e+000
    endloop
  endfacet
  facet normal -2.293588e-004 -1.139796e-003 -9.999993e-001
    outer loop
      vertex  -4.523770e-001 4.353550e+001 3.728490e+000
      vertex  -6.933920e-001 4.311900e+001 3.729020e+000
      vertex  -9.335770e-001 4.353590e+001 3.728600e+000
    endloop
  endfacet
  facet normal -2.083488e-004 -1.103935e-003 -9.999993e-001
    outer loop
      vertex  -9.335770e-001 4.353590e+001 3.728600e+000
      vertex  -1.173760e+000 4.395270e+001 3.728190e+000
      vertex  -9.328750e-001 4.436920e+001 3.727680e+000
    endloop
  endfacet
  facet normal -2.503629e-004 -1.103899e-003 -9.999993e-001
    outer loop
      vertex  -9.328750e-001 4.436920e+001 3.727680e+000
      vertex  -6.926230e-001 4.395230e+001 3.728080e+000
      vertex  -9.335770e-001 4.353590e+001 3.728600e+000
    endloop
  endfacet
  facet normal -2.505045e-004 -1.127975e-003 -9.999993e-001
    outer loop
      vertex  -6.933920e-001 4.311900e+001 3.729020e+000
      vertex  -4.531400e-001 4.270230e+001 3.729430e+000
      vertex  -6.943580e-001 4.228600e+001 3.729960e+000
    endloop
  endfacet
  facet normal -2.491084e-004 -1.127977e-003 -9.999993e-001
    outer loop
      vertex  -6.943580e-001 4.228600e+001 3.729960e+000
      vertex  -9.345530e-001 4.270260e+001 3.729550e+000
      vertex  -6.933920e-001 4.311900e+001 3.729020e+000
    endloop
  endfacet
  facet normal -2.503645e-004 -1.127641e-003 -9.999993e-001
    outer loop
      vertex  -6.933920e-001 4.311900e+001 3.729020e+000
      vertex  -4.523770e-001 4.353550e+001 3.728490e+000
      vertex  -2.120830e-001 4.311870e+001 3.728900e+000
    endloop
  endfacet
  facet normal -2.503647e-004 -1.127895e-003 -9.999993e-001
    outer loop
      vertex  -2.120830e-001 4.311870e+001 3.728900e+000
      vertex  -4.531400e-001 4.270230e+001 3.729430e+000
      vertex  -6.933920e-001 4.311900e+001 3.729020e+000
    endloop
  endfacet
  facet normal -2.291282e-004 -1.116558e-003 -9.999993e-001
    outer loop
      vertex  -4.531400e-001 4.270230e+001 3.729430e+000
      vertex  -2.127620e-001 4.228570e+001 3.729840e+000
      vertex  -4.540090e-001 4.186950e+001 3.730360e+000
    endloop
  endfacet
  facet normal -2.702833e-004 -1.116515e-003 -9.999993e-001
    outer loop
      vertex  -4.540090e-001 4.186950e+001 3.730360e+000
      vertex  -6.943580e-001 4.228600e+001 3.729960e+000
      vertex  -4.531400e-001 4.270230e+001 3.729430e+000
    endloop
  endfacet
  facet normal -2.497947e-004 -1.128225e-003 -9.999994e-001
    outer loop
      vertex  -4.531400e-001 4.270230e+001 3.729430e+000
      vertex  -2.120830e-001 4.311870e+001 3.728900e+000
      vertex  2.831330e-002 4.270200e+001 3.729310e+000
    endloop
  endfacet
  facet normal -2.497948e-004 -1.128482e-003 -9.999993e-001
    outer loop
      vertex  2.831330e-002 4.270200e+001 3.729310e+000
      vertex  -2.127620e-001 4.228570e+001 3.729840e+000
      vertex  -4.531400e-001 4.270230e+001 3.729430e+000
    endloop
  endfacet
  facet normal -2.497100e-004 -1.128531e-003 -9.999993e-001
    outer loop
      vertex  -2.127620e-001 4.228570e+001 3.729840e+000
      vertex  2.831330e-002 4.270200e+001 3.729310e+000
      vertex  2.688550e-001 4.228540e+001 3.729720e+000
    endloop
  endfacet
  facet normal -2.496952e-004 -1.105013e-003 -9.999993e-001
    outer loop
      vertex  2.688550e-001 4.228540e+001 3.729720e+000
      vertex  2.777980e-002 4.186930e+001 3.730240e+000
      vertex  -2.127620e-001 4.228570e+001 3.729840e+000
    endloop
  endfacet
  facet normal -2.295539e-004 -1.116682e-003 -9.999993e-001
    outer loop
      vertex  2.777980e-002 4.186930e+001 3.730240e+000
      vertex  2.688550e-001 4.228540e+001 3.729720e+000
      vertex  5.095690e-001 4.186890e+001 3.730130e+000
    endloop
  endfacet
  facet normal -2.296101e-004 -1.091644e-003 -9.999994e-001
    outer loop
      vertex  -6.926230e-001 4.395230e+001 3.728080e+000
      vertex  -4.517480e-001 4.436880e+001 3.727570e+000
      vertex  -2.114670e-001 4.395200e+001 3.727970e+000
    endloop
  endfacet
  facet normal -2.296255e-004 -1.116230e-003 -9.999993e-001
    outer loop
      vertex  -2.114670e-001 4.395200e+001 3.727970e+000
      vertex  -4.523770e-001 4.353550e+001 3.728490e+000
      vertex  -6.926230e-001 4.395230e+001 3.728080e+000
    endloop
  endfacet
  facet normal -2.293693e-004 -1.091801e-003 -9.999994e-001
    outer loop
      vertex  -6.926230e-001 4.395230e+001 3.728080e+000
      vertex  -9.328750e-001 4.436920e+001 3.727680e+000
      vertex  -6.920330e-001 4.478570e+001 3.727170e+000
    endloop
  endfacet
  facet normal -2.293378e-004 -1.091801e-003 -9.999994e-001
    outer loop
      vertex  -6.920330e-001 4.478570e+001 3.727170e+000
      vertex  -4.517480e-001 4.436880e+001 3.727570e+000
      vertex  -6.926230e-001 4.395230e+001 3.728080e+000
    endloop
  endfacet
  facet normal -2.295931e-004 -1.116249e-003 -9.999993e-001
    outer loop
      vertex  -4.523770e-001 4.353550e+001 3.728490e+000
      vertex  -2.114670e-001 4.395200e+001 3.727970e+000
      vertex  2.884690e-002 4.353520e+001 3.728380e+000
    endloop
  endfacet
  facet normal -2.295928e-004 -1.115666e-003 -9.999993e-001
    outer loop
      vertex  2.884690e-002 4.353520e+001 3.728380e+000
      vertex  -2.120830e-001 4.311870e+001 3.728900e+000
      vertex  -4.523770e-001 4.353550e+001 3.728490e+000
    endloop
  endfacet
  facet normal -2.290401e-004 -1.115985e-003 -9.999993e-001
    outer loop
      vertex  -2.120830e-001 4.311870e+001 3.728900e+000
      vertex  2.884690e-002 4.353520e+001 3.728380e+000
      vertex  2.692430e-001 4.311840e+001 3.728790e+000
    endloop
  endfacet
  facet normal -2.290403e-004 -1.116251e-003 -9.999993e-001
    outer loop
      vertex  2.692430e-001 4.311840e+001 3.728790e+000
      vertex  2.831330e-002 4.270200e+001 3.729310e+000
      vertex  -2.120830e-001 4.311870e+001 3.728900e+000
    endloop
  endfacet
  facet normal -2.294839e-004 -1.115994e-003 -9.999993e-001
    outer loop
      vertex  2.831330e-002 4.270200e+001 3.729310e+000
      vertex  2.692430e-001 4.311840e+001 3.728790e+000
      vertex  5.097660e-001 4.270170e+001 3.729200e+000
    endloop
  endfacet
  facet normal -2.294844e-004 -1.116853e-003 -9.999993e-001
    outer loop
      vertex  5.097660e-001 4.270170e+001 3.729200e+000
      vertex  2.688550e-001 4.228540e+001 3.729720e+000
      vertex  2.831330e-002 4.270200e+001 3.729310e+000
    endloop
  endfacet
  facet normal -2.294161e-004 -1.116893e-003 -9.999993e-001
    outer loop
      vertex  2.688550e-001 4.228540e+001 3.729720e+000
      vertex  5.097660e-001 4.270170e+001 3.729200e+000
      vertex  7.504510e-001 4.228510e+001 3.729610e+000
    endloop
  endfacet
  facet normal -2.294160e-004 -1.116602e-003 -9.999993e-001
    outer loop
      vertex  7.504510e-001 4.228510e+001 3.729610e+000
      vertex  5.095690e-001 4.186890e+001 3.730130e+000
      vertex  2.688550e-001 4.228540e+001 3.729720e+000
    endloop
  endfacet
  facet normal -2.296231e-004 -1.091658e-003 -9.999994e-001
    outer loop
      vertex  -4.517480e-001 4.436880e+001 3.727570e+000
      vertex  -2.109120e-001 4.478530e+001 3.727060e+000
      vertex  2.938070e-002 4.436850e+001 3.727460e+000
    endloop
  endfacet
  facet normal -2.296231e-004 -1.091651e-003 -9.999994e-001
    outer loop
      vertex  2.938070e-002 4.436850e+001 3.727460e+000
      vertex  -2.114670e-001 4.395200e+001 3.727970e+000
      vertex  -4.517480e-001 4.436880e+001 3.727570e+000
    endloop
  endfacet
  facet normal -2.293612e-004 -1.091815e-003 -9.999994e-001
    outer loop
      vertex  -4.517480e-001 4.436880e+001 3.727570e+000
      vertex  -6.920330e-001 4.478570e+001 3.727170e+000
      vertex  -4.512070e-001 4.520220e+001 3.726660e+000
    endloop
  endfacet
  facet normal -2.293517e-004 -1.091815e-003 -9.999994e-001
    outer loop
      vertex  -4.512070e-001 4.520220e+001 3.726660e+000
      vertex  -2.109120e-001 4.478530e+001 3.727060e+000
      vertex  -4.517480e-001 4.436880e+001 3.727570e+000
    endloop
  endfacet
  facet normal -2.291120e-004 -1.091947e-003 -9.999994e-001
    outer loop
      vertex  -2.114670e-001 4.395200e+001 3.727970e+000
      vertex  2.938070e-002 4.436850e+001 3.727460e+000
      vertex  2.696950e-001 4.395170e+001 3.727860e+000
    endloop
  endfacet
  facet normal -2.291270e-004 -1.115980e-003 -9.999993e-001
    outer loop
      vertex  2.696950e-001 4.395170e+001 3.727860e+000
      vertex  2.884690e-002 4.353520e+001 3.728380e+000
      vertex  -2.114670e-001 4.395200e+001 3.727970e+000
    endloop
  endfacet
  facet normal -2.498902e-004 -1.103973e-003 -9.999993e-001
    outer loop
      vertex  2.884690e-002 4.353520e+001 3.728380e+000
      vertex  2.696950e-001 4.395170e+001 3.727860e+000
      vertex  5.100700e-001 4.353490e+001 3.728260e+000
    endloop
  endfacet
  facet normal -2.499050e-004 -1.128020e-003 -9.999993e-001
    outer loop
      vertex  5.100700e-001 4.353490e+001 3.728260e+000
      vertex  2.692430e-001 4.311840e+001 3.728790e+000
      vertex  2.884690e-002 4.353520e+001 3.728380e+000
    endloop
  endfacet
  facet normal -2.503646e-004 -1.127754e-003 -9.999994e-001
    outer loop
      vertex  2.692430e-001 4.311840e+001 3.728790e+000
      vertex  5.100700e-001 4.353490e+001 3.728260e+000
      vertex  7.505520e-001 4.311810e+001 3.728670e+000
    endloop
  endfacet
  facet normal -2.503648e-004 -1.128047e-003 -9.999993e-001
    outer loop
      vertex  7.505520e-001 4.311810e+001 3.728670e+000
      vertex  5.097660e-001 4.270170e+001 3.729200e+000
      vertex  2.692430e-001 4.311840e+001 3.728790e+000
    endloop
  endfacet
  facet normal -2.290133e-004 -1.140394e-003 -9.999993e-001
    outer loop
      vertex  5.097660e-001 4.270170e+001 3.729200e+000
      vertex  7.505520e-001 4.311810e+001 3.728670e+000
      vertex  9.911800e-001 4.270140e+001 3.729090e+000
    endloop
  endfacet
  facet normal -2.289986e-004 -1.116651e-003 -9.999993e-001
    outer loop
      vertex  9.911800e-001 4.270140e+001 3.729090e+000
      vertex  7.504510e-001 4.228510e+001 3.729610e+000
      vertex  5.097660e-001 4.270170e+001 3.729200e+000
    endloop
  endfacet
  facet normal -2.504334e-004 -1.079630e-003 -9.999994e-001
    outer loop
      vertex  -2.109120e-001 4.478530e+001 3.727060e+000
      vertex  2.991450e-002 4.520180e+001 3.726550e+000
      vertex  2.702070e-001 4.478500e+001 3.726940e+000
    endloop
  endfacet
  facet normal -2.504484e-004 -1.103664e-003 -9.999993e-001
    outer loop
      vertex  2.702070e-001 4.478500e+001 3.726940e+000
      vertex  2.938070e-002 4.436850e+001 3.727460e+000
      vertex  -2.109120e-001 4.478530e+001 3.727060e+000
    endloop
  endfacet
  facet normal -2.293650e-004 -1.091822e-003 -9.999994e-001
    outer loop
      vertex  -2.109120e-001 4.478530e+001 3.727060e+000
      vertex  -4.512070e-001 4.520220e+001 3.726660e+000
      vertex  -2.103810e-001 4.561870e+001 3.726150e+000
    endloop
  endfacet
  facet normal -2.293473e-004 -1.091822e-003 -9.999994e-001
    outer loop
      vertex  -2.103810e-001 4.561870e+001 3.726150e+000
      vertex  2.991450e-002 4.520180e+001 3.726550e+000
      vertex  -2.109120e-001 4.478530e+001 3.727060e+000
    endloop
  endfacet
  facet normal -2.499482e-004 -1.103953e-003 -9.999993e-001
    outer loop
      vertex  2.938070e-002 4.436850e+001 3.727460e+000
      vertex  2.702070e-001 4.478500e+001 3.726940e+000
      vertex  5.105090e-001 4.436820e+001 3.727340e+000
    endloop
  endfacet
  facet normal -2.499482e-004 -1.103960e-003 -9.999993e-001
    outer loop
      vertex  5.105090e-001 4.436820e+001 3.727340e+000
      vertex  2.696950e-001 4.395170e+001 3.727860e+000
      vertex  2.938070e-002 4.436850e+001 3.727460e+000
    endloop
  endfacet
  facet normal -2.499256e-004 -1.103973e-003 -9.999993e-001
    outer loop
      vertex  2.696950e-001 4.395170e+001 3.727860e+000
      vertex  5.105090e-001 4.436820e+001 3.727340e+000
      vertex  7.508500e-001 4.395140e+001 3.727740e+000
    endloop
  endfacet
  facet normal -2.499256e-004 -1.103994e-003 -9.999993e-001
    outer loop
      vertex  7.508500e-001 4.395140e+001 3.727740e+000
      vertex  5.100700e-001 4.353490e+001 3.728260e+000
      vertex  2.696950e-001 4.395170e+001 3.727860e+000
    endloop
  endfacet
  facet normal -2.499110e-004 -1.104002e-003 -9.999993e-001
    outer loop
      vertex  5.100700e-001 4.353490e+001 3.728260e+000
      vertex  7.508500e-001 4.395140e+001 3.727740e+000
      vertex  9.912700e-001 4.353460e+001 3.728140e+000
    endloop
  endfacet
  facet normal -2.499257e-004 -1.127501e-003 -9.999993e-001
    outer loop
      vertex  9.912700e-001 4.353460e+001 3.728140e+000
      vertex  7.505520e-001 4.311810e+001 3.728670e+000
      vertex  5.100700e-001 4.353490e+001 3.728260e+000
    endloop
  endfacet
  facet normal -2.288522e-004 -1.139680e-003 -9.999993e-001
    outer loop
      vertex  7.505520e-001 4.311810e+001 3.728670e+000
      vertex  9.912700e-001 4.353460e+001 3.728140e+000
      vertex  1.231810e+000 4.311790e+001 3.728560e+000
    endloop
  endfacet
  facet normal -2.288525e-004 -1.140301e-003 -9.999993e-001
    outer loop
      vertex  1.231810e+000 4.311790e+001 3.728560e+000
      vertex  9.911800e-001 4.270140e+001 3.729090e+000
      vertex  7.505520e-001 4.311810e+001 3.728670e+000
    endloop
  endfacet
  facet normal -2.504469e-004 -1.103400e-003 -9.999993e-001
    outer loop
      vertex  2.991450e-002 4.520180e+001 3.726550e+000
      vertex  2.707430e-001 4.561840e+001 3.726030e+000
      vertex  5.110360e-001 4.520150e+001 3.726430e+000
    endloop
  endfacet
  facet normal -2.504321e-004 -1.079629e-003 -9.999994e-001
    outer loop
      vertex  5.110360e-001 4.520150e+001 3.726430e+000
      vertex  2.702070e-001 4.478500e+001 3.726940e+000
      vertex  2.991450e-002 4.520180e+001 3.726550e+000
    endloop
  endfacet
  facet normal -2.499369e-004 -1.079916e-003 -9.999994e-001
    outer loop
      vertex  2.702070e-001 4.478500e+001 3.726940e+000
      vertex  5.110360e-001 4.520150e+001 3.726430e+000
      vertex  7.513280e-001 4.478470e+001 3.726820e+000
    endloop
  endfacet
  facet normal -2.499520e-004 -1.103955e-003 -9.999994e-001
    outer loop
      vertex  7.513280e-001 4.478470e+001 3.726820e+000
      vertex  5.105090e-001 4.436820e+001 3.727340e+000
      vertex  2.702070e-001 4.478500e+001 3.726940e+000
    endloop
  endfacet
  facet normal -2.499401e-004 -1.103962e-003 -9.999994e-001
    outer loop
      vertex  5.105090e-001 4.436820e+001 3.727340e+000
      vertex  7.513280e-001 4.478470e+001 3.726820e+000
      vertex  9.916360e-001 4.436790e+001 3.727220e+000
    endloop
  endfacet
  facet normal -2.499401e-004 -1.103982e-003 -9.999993e-001
    outer loop
      vertex  9.916360e-001 4.436790e+001 3.727220e+000
      vertex  7.508500e-001 4.395140e+001 3.727740e+000
      vertex  5.105090e-001 4.436820e+001 3.727340e+000
    endloop
  endfacet
  facet normal -2.705218e-004 -1.092083e-003 -9.999993e-001
    outer loop
      vertex  7.508500e-001 4.395140e+001 3.727740e+000
      vertex  9.916360e-001 4.436790e+001 3.727220e+000
      vertex  1.231990e+000 4.395120e+001 3.727610e+000
    endloop
  endfacet
  facet normal -2.705318e-004 -1.115897e-003 -9.999993e-001
    outer loop
      vertex  1.231990e+000 4.395120e+001 3.727610e+000
      vertex  9.912700e-001 4.353460e+001 3.728140e+000
      vertex  7.508500e-001 4.395140e+001 3.727740e+000
    endloop
  endfacet
  facet normal -8.657008e-001 5.005618e-001 -1.928391e-004
    outer loop
      vertex  -4.512070e-001 4.520220e+001 3.726660e+000
      vertex  -4.511480e-001 4.520240e+001 3.976660e+000
      vertex  -2.103210e-001 4.561890e+001 3.976150e+000
    endloop
  endfacet
  facet normal -8.656996e-001 5.005636e-001 -1.970217e-004
    outer loop
      vertex  -2.103210e-001 4.561890e+001 3.976150e+000
      vertex  -2.103810e-001 4.561870e+001 3.726150e+000
      vertex  -4.512070e-001 4.520220e+001 3.726660e+000
    endloop
  endfacet
  facet normal -8.657008e-001 5.005617e-001 -1.963479e-004
    outer loop
      vertex  -6.920330e-001 4.478570e+001 3.727170e+000
      vertex  -6.919750e-001 4.478590e+001 3.977170e+000
      vertex  -4.511480e-001 4.520240e+001 3.976660e+000
    endloop
  endfacet
  facet normal -8.657017e-001 5.005602e-001 -1.928376e-004
    outer loop
      vertex  -4.511480e-001 4.520240e+001 3.976660e+000
      vertex  -4.512070e-001 4.520220e+001 3.726660e+000
      vertex  -6.920330e-001 4.478570e+001 3.727170e+000
    endloop
  endfacet
  facet normal -8.656864e-001 5.005867e-001 -1.998797e-004
    outer loop
      vertex  -9.328750e-001 4.436920e+001 3.727680e+000
      vertex  -9.328180e-001 4.436940e+001 3.977680e+000
      vertex  -6.919750e-001 4.478590e+001 3.977170e+000
    endloop
  endfacet
  facet normal -8.656873e-001 5.005851e-001 -1.963695e-004
    outer loop
      vertex  -6.919750e-001 4.478590e+001 3.977170e+000
      vertex  -6.920330e-001 4.478570e+001 3.727170e+000
      vertex  -9.328750e-001 4.436920e+001 3.727680e+000
    endloop
  endfacet
  facet normal -8.655906e-001 5.007522e-001 -4.226347e-004
    outer loop
      vertex  -1.173760e+000 4.395270e+001 3.728190e+000
      vertex  -1.173710e+000 4.395300e+001 3.978190e+000
      vertex  -9.328180e-001 4.436940e+001 3.977680e+000
    endloop
  endfacet
  facet normal -8.656484e-001 5.006522e-001 -1.999403e-004
    outer loop
      vertex  -9.328180e-001 4.436940e+001 3.977680e+000
      vertex  -9.328750e-001 4.436920e+001 3.727680e+000
      vertex  -1.173760e+000 4.395270e+001 3.728190e+000
    endloop
  endfacet
  facet normal 8.662325e-001 4.996406e-001 -8.129629e-004
    outer loop
      vertex  9.916360e-001 4.436790e+001 3.727220e+000
      vertex  9.916990e-001 4.436820e+001 3.977220e+000
      vertex  1.232050e+000 4.395150e+001 3.977620e+000
    endloop
  endfacet
  facet normal 8.662317e-001 4.996420e-001 -8.100237e-004
    outer loop
      vertex  1.232050e+000 4.395150e+001 3.977620e+000
      vertex  1.231990e+000 4.395120e+001 3.727610e+000
      vertex  9.916360e-001 4.436790e+001 3.727220e+000
    endloop
  endfacet
  facet normal 8.663228e-001 4.994840e-001 -8.135721e-004
    outer loop
      vertex  7.513280e-001 4.478470e+001 3.726820e+000
      vertex  7.513890e-001 4.478500e+001 3.976830e+000
      vertex  9.916990e-001 4.436820e+001 3.977220e+000
    endloop
  endfacet
  facet normal 8.663225e-001 4.994843e-001 -8.127997e-004
    outer loop
      vertex  9.916990e-001 4.436820e+001 3.977220e+000
      vertex  9.916360e-001 4.436790e+001 3.727220e+000
      vertex  7.513280e-001 4.478470e+001 3.726820e+000
    endloop
  endfacet
  facet normal 8.663380e-001 4.994576e-001 -8.100652e-004
    outer loop
      vertex  5.110360e-001 4.520150e+001 3.726430e+000
      vertex  5.110960e-001 4.520180e+001 3.976430e+000
      vertex  7.513890e-001 4.478500e+001 3.976830e+000
    endloop
  endfacet
  facet normal 8.663388e-001 4.994560e-001 -8.135423e-004
    outer loop
      vertex  7.513890e-001 4.478500e+001 3.976830e+000
      vertex  7.513280e-001 4.478470e+001 3.726820e+000
      vertex  5.110360e-001 4.520150e+001 3.726430e+000
    endloop
  endfacet
  facet normal 8.663360e-001 4.994612e-001 -6.041705e-004
    outer loop
      vertex  2.707430e-001 4.561840e+001 3.726030e+000
      vertex  2.708030e-001 4.561860e+001 3.976040e+000
      vertex  5.110960e-001 4.520180e+001 3.976430e+000
    endloop
  endfacet
  facet normal 8.663894e-001 4.993683e-001 -8.099700e-004
    outer loop
      vertex  5.110960e-001 4.520180e+001 3.976430e+000
      vertex  5.110360e-001 4.520150e+001 3.726430e+000
      vertex  2.707430e-001 4.561840e+001 3.726030e+000
    endloop
  endfacet
  facet normal -2.199904e-004 -1.122057e-003 -9.999993e-001
    outer loop
      vertex  5.095690e-001 4.186890e+001 3.730130e+000
      vertex  7.504510e-001 4.228510e+001 3.729610e+000
      vertex  1.081730e+000 4.171210e+001 3.730180e+000
    endloop
  endfacet
  facet normal -2.256890e-004 -1.118565e-003 -9.999993e-001
    outer loop
      vertex  7.504510e-001 4.228510e+001 3.729610e+000
      vertex  9.911800e-001 4.270140e+001 3.729090e+000
      vertex  1.324570e+000 4.212450e+001 3.729660e+000
    endloop
  endfacet
  facet normal -2.279537e-004 -1.126661e-003 -9.999993e-001
    outer loop
      vertex  1.324570e+000 4.212450e+001 3.729660e+000
      vertex  1.081730e+000 4.171210e+001 3.730180e+000
      vertex  7.504510e-001 4.228510e+001 3.729610e+000
    endloop
  endfacet
  facet normal -2.369673e-004 -1.135612e-003 -9.999993e-001
    outer loop
      vertex  9.911800e-001 4.270140e+001 3.729090e+000
      vertex  1.231810e+000 4.311790e+001 3.728560e+000
      vertex  1.567260e+000 4.253710e+001 3.729140e+000
    endloop
  endfacet
  facet normal -2.333717e-004 -1.123005e-003 -9.999993e-001
    outer loop
      vertex  1.567260e+000 4.253710e+001 3.729140e+000
      vertex  1.324570e+000 4.212450e+001 3.729660e+000
      vertex  9.911800e-001 4.270140e+001 3.729090e+000
    endloop
  endfacet
  facet normal -2.242977e-004 -1.136532e-003 -9.999993e-001
    outer loop
      vertex  -1.174650e+000 4.311940e+001 3.729130e+000
      vertex  -9.345530e-001 4.270260e+001 3.729550e+000
      vertex  -1.268680e+000 4.212620e+001 3.730280e+000
    endloop
  endfacet
  facet normal -2.424863e-004 -1.134810e-003 -9.999993e-001
    outer loop
      vertex  -1.268680e+000 4.212620e+001 3.730280e+000
      vertex  -1.510840e+000 4.253910e+001 3.729870e+000
      vertex  -1.174650e+000 4.311940e+001 3.729130e+000
    endloop
  endfacet
  facet normal -2.361808e-004 -1.120523e-003 -9.999993e-001
    outer loop
      vertex  -9.345530e-001 4.270260e+001 3.729550e+000
      vertex  -6.943580e-001 4.228600e+001 3.729960e+000
      vertex  -1.026370e+000 4.171340e+001 3.730680e+000
    endloop
  endfacet
  facet normal -2.549129e-004 -1.118785e-003 -9.999993e-001
    outer loop
      vertex  -1.026370e+000 4.171340e+001 3.730680e+000
      vertex  -1.268680e+000 4.212620e+001 3.730280e+000
      vertex  -9.345530e-001 4.270260e+001 3.729550e+000
    endloop
  endfacet
  facet normal -2.642413e-004 -1.147569e-003 -9.999993e-001
    outer loop
      vertex  -1.510840e+000 4.253910e+001 3.729870e+000
      vertex  -1.268680e+000 4.212620e+001 3.730280e+000
      vertex  -1.603120e+000 4.154960e+001 3.731030e+000
    endloop
  endfacet
  facet normal -2.814806e-004 -1.145961e-003 -9.999992e-001
    outer loop
      vertex  -1.603120e+000 4.154960e+001 3.731030e+000
      vertex  -1.847350e+000 4.195870e+001 3.730630e+000
      vertex  -1.510840e+000 4.253910e+001 3.729870e+000
    endloop
  endfacet
  facet normal -2.619820e-004 -1.157266e-003 -9.999992e-001
    outer loop
      vertex  -1.510840e+000 4.253910e+001 3.729870e+000
      vertex  -1.847350e+000 4.195870e+001 3.730630e+000
      vertex  -2.091430e+000 4.236810e+001 3.730220e+000
    endloop
  endfacet
  facet normal -2.587396e-004 -1.168275e-003 -9.999993e-001
    outer loop
      vertex  -2.091430e+000 4.236810e+001 3.730220e+000
      vertex  -1.752930e+000 4.295230e+001 3.729450e+000
      vertex  -1.510840e+000 4.253910e+001 3.729870e+000
    endloop
  endfacet
  facet normal -3.217213e-004 -1.156595e-003 -9.999992e-001
    outer loop
      vertex  -1.847350e+000 4.195870e+001 3.730630e+000
      vertex  -2.184150e+000 4.137790e+001 3.731410e+000
      vertex  -2.430260e+000 4.178360e+001 3.731020e+000
    endloop
  endfacet
  facet normal -3.124768e-004 -1.187370e-003 -9.999993e-001
    outer loop
      vertex  -2.430260e+000 4.178360e+001 3.731020e+000
      vertex  -2.091430e+000 4.236810e+001 3.730220e+000
      vertex  -1.847350e+000 4.195870e+001 3.730630e+000
    endloop
  endfacet
  facet normal -3.710501e-004 -1.186519e-003 -9.999993e-001
    outer loop
      vertex  -2.769320e+000 4.119860e+001 3.731840e+000
      vertex  -2.430260e+000 4.178360e+001 3.731020e+000
      vertex  -2.184150e+000 4.137790e+001 3.731410e+000
    endloop
  endfacet
  facet normal -8.652480e-001 5.013440e-001 -3.887975e-004
    outer loop
      vertex  -1.752870e+000 4.295260e+001 3.979420e+000
      vertex  -1.752930e+000 4.295230e+001 3.729450e+000
      vertex  -2.091430e+000 4.236810e+001 3.730220e+000
    endloop
  endfacet
  facet normal -8.652464e-001 5.013467e-001 -3.973569e-004
    outer loop
      vertex  -2.091430e+000 4.236810e+001 3.730220e+000
      vertex  -2.091370e+000 4.236840e+001 3.980140e+000
      vertex  -1.752870e+000 4.295260e+001 3.979420e+000
    endloop
  endfacet
  facet normal -8.651468e-001 5.015187e-001 -3.975882e-004
    outer loop
      vertex  -2.091370e+000 4.236840e+001 3.980140e+000
      vertex  -2.091430e+000 4.236810e+001 3.730220e+000
      vertex  -2.430260e+000 4.178360e+001 3.731020e+000
    endloop
  endfacet
  facet normal -8.651531e-001 5.015076e-001 -3.630396e-004
    outer loop
      vertex  -2.430260e+000 4.178360e+001 3.731020e+000
      vertex  -2.430190e+000 4.178390e+001 3.980850e+000
      vertex  -2.091370e+000 4.236840e+001 3.980140e+000
    endloop
  endfacet
  facet normal -8.651850e-001 5.014527e-001 -3.629644e-004
    outer loop
      vertex  -2.430190e+000 4.178390e+001 3.980850e+000
      vertex  -2.430260e+000 4.178360e+001 3.731020e+000
      vertex  -2.769320e+000 4.119860e+001 3.731840e+000
    endloop
  endfacet
  facet normal -8.652233e-001 5.013866e-001 -1.554050e-004
    outer loop
      vertex  -2.769320e+000 4.119860e+001 3.731840e+000
      vertex  -2.769250e+000 4.119880e+001 3.981570e+000
      vertex  -2.430190e+000 4.178390e+001 3.980850e+000
    endloop
  endfacet
  facet normal -1.895764e-004 -1.149260e-003 -9.999993e-001
    outer loop
      vertex  1.081730e+000 4.171210e+001 3.730180e+000
      vertex  1.324570e+000 4.212450e+001 3.729660e+000
      vertex  1.658270e+000 4.154750e+001 3.730260e+000
    endloop
  endfacet
  facet normal -1.950258e-004 -1.145560e-003 -9.999993e-001
    outer loop
      vertex  1.324570e+000 4.212450e+001 3.729660e+000
      vertex  1.567260e+000 4.253710e+001 3.729140e+000
      vertex  1.903030e+000 4.195630e+001 3.729740e+000
    endloop
  endfacet
  facet normal -1.974207e-004 -1.153796e-003 -9.999992e-001
    outer loop
      vertex  1.903030e+000 4.195630e+001 3.729740e+000
      vertex  1.658270e+000 4.154750e+001 3.730260e+000
      vertex  1.324570e+000 4.212450e+001 3.729660e+000
    endloop
  endfacet
  facet normal -1.742003e-004 -1.167699e-003 -9.999992e-001
    outer loop
      vertex  1.658270e+000 4.154750e+001 3.730260e+000
      vertex  1.903030e+000 4.195630e+001 3.729740e+000
      vertex  2.239080e+000 4.137510e+001 3.730360e+000
    endloop
  endfacet
  facet normal -2.270926e-004 -1.174434e-003 -9.999993e-001
    outer loop
      vertex  1.567260e+000 4.253710e+001 3.729140e+000
      vertex  1.809870e+000 4.295000e+001 3.728600e+000
      vertex  2.147630e+000 4.236540e+001 3.729210e+000
    endloop
  endfacet
  facet normal -2.234037e-004 -1.161965e-003 -9.999992e-001
    outer loop
      vertex  2.147630e+000 4.236540e+001 3.729210e+000
      vertex  1.903030e+000 4.195630e+001 3.729740e+000
      vertex  1.567260e+000 4.253710e+001 3.729140e+000
    endloop
  endfacet
  facet normal -1.709920e-004 -1.193302e-003 -9.999993e-001
    outer loop
      vertex  1.903030e+000 4.195630e+001 3.729740e+000
      vertex  2.147630e+000 4.236540e+001 3.729210e+000
      vertex  2.485710e+000 4.178050e+001 3.729850e+000
    endloop
  endfacet
  facet normal -1.609570e-004 -1.160042e-003 -9.999993e-001
    outer loop
      vertex  2.485710e+000 4.178050e+001 3.729850e+000
      vertex  2.239080e+000 4.137510e+001 3.730360e+000
      vertex  1.903030e+000 4.195630e+001 3.729740e+000
    endloop
  endfacet
  facet normal -1.247026e-004 -1.182097e-003 -9.999993e-001
    outer loop
      vertex  2.239080e+000 4.137510e+001 3.730360e+000
      vertex  2.485710e+000 4.178050e+001 3.729850e+000
      vertex  2.824020e+000 4.119500e+001 3.730500e+000
    endloop
  endfacet
  facet normal 8.658209e-001 5.003537e-001 -5.784367e-004
    outer loop
      vertex  2.485710e+000 4.178050e+001 3.729850e+000
      vertex  2.485760e+000 4.178070e+001 3.979680e+000
      vertex  2.824060e+000 4.119530e+001 3.980240e+000
    endloop
  endfacet
  facet normal 8.658512e-001 5.003010e-001 -7.425813e-004
    outer loop
      vertex  2.824060e+000 4.119530e+001 3.980240e+000
      vertex  2.824020e+000 4.119500e+001 3.730500e+000
      vertex  2.485710e+000 4.178050e+001 3.729850e+000
    endloop
  endfacet
  facet normal 8.658200e-001 5.003550e-001 -8.114883e-004
    outer loop
      vertex  2.147630e+000 4.236540e+001 3.729210e+000
      vertex  2.147690e+000 4.236570e+001 3.979130e+000
      vertex  2.485760e+000 4.178070e+001 3.979680e+000
    endloop
  endfacet
  facet normal 8.657768e-001 5.004299e-001 -5.784895e-004
    outer loop
      vertex  2.485760e+000 4.178070e+001 3.979680e+000
      vertex  2.485710e+000 4.178050e+001 3.729850e+000
      vertex  2.147630e+000 4.236540e+001 3.729210e+000
    endloop
  endfacet
  facet normal 8.658702e-001 5.002680e-001 -8.031864e-004
    outer loop
      vertex  1.809870e+000 4.295000e+001 3.728600e+000
      vertex  1.809930e+000 4.295030e+001 3.978570e+000
      vertex  2.147690e+000 4.236570e+001 3.979130e+000
    endloop
  endfacet
  facet normal 8.658718e-001 5.002654e-001 -8.113927e-004
    outer loop
      vertex  2.147690e+000 4.236570e+001 3.979130e+000
      vertex  2.147630e+000 4.236540e+001 3.729210e+000
      vertex  1.809870e+000 4.295000e+001 3.728600e+000
    endloop
  endfacet
  facet normal 2.449826e-004 1.082645e-003 9.999993e-001
    outer loop
      vertex  1.809930e+000 4.295030e+001 3.978570e+000
      vertex  1.472490e+000 4.353470e+001 3.978020e+000
      vertex  1.231870e+000 4.311810e+001 3.978530e+000
    endloop
  endfacet
  facet normal 2.470958e-004 1.089925e-003 9.999993e-001
    outer loop
      vertex  1.231870e+000 4.311810e+001 3.978530e+000
      vertex  1.567320e+000 4.253740e+001 3.979080e+000
      vertex  1.809930e+000 4.295030e+001 3.978570e+000
    endloop
  endfacet
  facet normal 2.289355e-004 1.091914e-003 9.999994e-001
    outer loop
      vertex  1.231870e+000 4.311810e+001 3.978530e+000
      vertex  1.472490e+000 4.353470e+001 3.978020e+000
      vertex  1.232050e+000 4.395150e+001 3.977620e+000
    endloop
  endfacet
  facet normal 2.298329e-004 1.091914e-003 9.999994e-001
    outer loop
      vertex  1.232050e+000 4.395150e+001 3.977620e+000
      vertex  9.913320e-001 4.353490e+001 3.978130e+000
      vertex  1.231870e+000 4.311810e+001 3.978530e+000
    endloop
  endfacet
  facet normal 2.296254e-004 1.091660e-003 9.999994e-001
    outer loop
      vertex  2.708030e-001 4.561860e+001 3.976040e+000
      vertex  3.050810e-002 4.603540e+001 3.975640e+000
      vertex  -2.103210e-001 4.561890e+001 3.976150e+000
    endloop
  endfacet
  facet normal 2.296258e-004 1.092233e-003 9.999994e-001
    outer loop
      vertex  -2.103210e-001 4.561890e+001 3.976150e+000
      vertex  2.997430e-002 4.520210e+001 3.976550e+000
      vertex  2.708030e-001 4.561860e+001 3.976040e+000
    endloop
  endfacet
  facet normal 2.366161e-004 1.095895e-003 9.999993e-001
    outer loop
      vertex  -1.174590e+000 4.311970e+001 3.979100e+000
      vertex  -1.414680e+000 4.353660e+001 3.978700e+000
      vertex  -1.752870e+000 4.295260e+001 3.979420e+000
    endloop
  endfacet
  facet normal 2.398992e-004 1.084534e-003 9.999993e-001
    outer loop
      vertex  -1.752870e+000 4.295260e+001 3.979420e+000
      vertex  -1.510780e+000 4.253940e+001 3.979810e+000
      vertex  -1.174590e+000 4.311970e+001 3.979100e+000
    endloop
  endfacet
  facet normal 2.296021e-004 1.091856e-003 9.999994e-001
    outer loop
      vertex  -1.173710e+000 4.395300e+001 3.978190e+000
      vertex  -1.414680e+000 4.353660e+001 3.978700e+000
      vertex  -1.174590e+000 4.311970e+001 3.979100e+000
    endloop
  endfacet
  facet normal 2.295220e-004 1.091856e-003 9.999994e-001
    outer loop
      vertex  -1.174590e+000 4.311970e+001 3.979100e+000
      vertex  -9.335180e-001 4.353610e+001 3.978590e+000
      vertex  -1.173710e+000 4.395300e+001 3.978190e+000
    endloop
  endfacet
  facet normal 2.347272e-004 1.089081e-003 9.999993e-001
    outer loop
      vertex  1.231870e+000 4.311810e+001 3.978530e+000
      vertex  9.912390e-001 4.270170e+001 3.979040e+000
      vertex  1.324630e+000 4.212480e+001 3.979590e+000
    endloop
  endfacet
  facet normal 2.477375e-004 1.090296e-003 9.999993e-001
    outer loop
      vertex  1.324630e+000 4.212480e+001 3.979590e+000
      vertex  1.567320e+000 4.253740e+001 3.979080e+000
      vertex  1.231870e+000 4.311810e+001 3.978530e+000
    endloop
  endfacet
  facet normal 2.292942e-004 1.091912e-003 9.999994e-001
    outer loop
      vertex  9.913320e-001 4.353490e+001 3.978130e+000
      vertex  7.506120e-001 4.311840e+001 3.978640e+000
      vertex  9.912390e-001 4.270170e+001 3.979040e+000
    endloop
  endfacet
  facet normal 2.298292e-004 1.091912e-003 9.999994e-001
    outer loop
      vertex  9.912390e-001 4.270170e+001 3.979040e+000
      vertex  1.231870e+000 4.311810e+001 3.978530e+000
      vertex  9.913320e-001 4.353490e+001 3.978130e+000
    endloop
  endfacet
  facet normal 2.439846e-004 1.083683e-003 9.999993e-001
    outer loop
      vertex  9.912390e-001 4.270170e+001 3.979040e+000
      vertex  7.505090e-001 4.228530e+001 3.979550e+000
      vertex  1.081790e+000 4.171240e+001 3.980090e+000
    endloop
  endfacet
  facet normal 2.218873e-004 1.081661e-003 9.999993e-001
    outer loop
      vertex  1.081790e+000 4.171240e+001 3.980090e+000
      vertex  1.324630e+000 4.212480e+001 3.979590e+000
      vertex  9.912390e-001 4.270170e+001 3.979040e+000
    endloop
  endfacet
  facet normal 2.294515e-004 1.092044e-003 9.999994e-001
    outer loop
      vertex  7.506120e-001 4.311840e+001 3.978640e+000
      vertex  5.098250e-001 4.270200e+001 3.979150e+000
      vertex  7.505090e-001 4.228530e+001 3.979550e+000
    endloop
  endfacet
  facet normal 2.295231e-004 1.092044e-003 9.999994e-001
    outer loop
      vertex  7.505090e-001 4.228530e+001 3.979550e+000
      vertex  9.912390e-001 4.270170e+001 3.979040e+000
      vertex  7.506120e-001 4.311840e+001 3.978640e+000
    endloop
  endfacet
  facet normal 2.286677e-004 1.092699e-003 9.999994e-001
    outer loop
      vertex  5.098250e-001 4.270200e+001 3.979150e+000
      vertex  2.689140e-001 4.228570e+001 3.979660e+000
      vertex  5.096270e-001 4.186920e+001 3.980060e+000
    endloop
  endfacet
  facet normal 2.305856e-004 1.092699e-003 9.999994e-001
    outer loop
      vertex  5.096270e-001 4.186920e+001 3.980060e+000
      vertex  7.505090e-001 4.228530e+001 3.979550e+000
      vertex  5.098250e-001 4.270200e+001 3.979150e+000
    endloop
  endfacet
  facet normal 2.340669e-004 1.081891e-003 9.999993e-001
    outer loop
      vertex  2.147690e+000 4.236570e+001 3.979130e+000
      vertex  1.903080e+000 4.195650e+001 3.979630e+000
      vertex  2.239120e+000 4.137540e+001 3.980180e+000
    endloop
  endfacet
  facet normal 2.472429e-004 1.083107e-003 9.999993e-001
    outer loop
      vertex  2.239120e+000 4.137540e+001 3.980180e+000
      vertex  2.485760e+000 4.178070e+001 3.979680e+000
      vertex  2.147690e+000 4.236570e+001 3.979130e+000
    endloop
  endfacet
  facet normal 2.473019e-004 1.089804e-003 9.999993e-001
    outer loop
      vertex  1.809930e+000 4.295030e+001 3.978570e+000
      vertex  1.567320e+000 4.253740e+001 3.979080e+000
      vertex  1.903080e+000 4.195650e+001 3.979630e+000
    endloop
  endfacet
  facet normal 2.244169e-004 1.087659e-003 9.999993e-001
    outer loop
      vertex  1.903080e+000 4.195650e+001 3.979630e+000
      vertex  2.147690e+000 4.236570e+001 3.979130e+000
      vertex  1.809930e+000 4.295030e+001 3.978570e+000
    endloop
  endfacet
  facet normal 2.509192e-004 1.079920e-003 9.999994e-001
    outer loop
      vertex  2.708030e-001 4.561860e+001 3.976040e+000
      vertex  2.997430e-002 4.520210e+001 3.976550e+000
      vertex  2.702670e-001 4.478530e+001 3.976940e+000
    endloop
  endfacet
  facet normal 2.499279e-004 1.079921e-003 9.999994e-001
    outer loop
      vertex  2.702670e-001 4.478530e+001 3.976940e+000
      vertex  5.110960e-001 4.520180e+001 3.976430e+000
      vertex  2.708030e-001 4.561860e+001 3.976040e+000
    endloop
  endfacet
  facet normal 2.291262e-004 1.091949e-003 9.999994e-001
    outer loop
      vertex  5.110960e-001 4.520180e+001 3.976430e+000
      vertex  2.702670e-001 4.478530e+001 3.976940e+000
      vertex  5.105700e-001 4.436850e+001 3.977340e+000
    endloop
  endfacet
  facet normal 2.291357e-004 1.091949e-003 9.999994e-001
    outer loop
      vertex  5.105700e-001 4.436850e+001 3.977340e+000
      vertex  7.513890e-001 4.478500e+001 3.976830e+000
      vertex  5.110960e-001 4.520180e+001 3.976430e+000
    endloop
  endfacet
  facet normal 2.499162e-004 1.079934e-003 9.999994e-001
    outer loop
      vertex  7.513890e-001 4.478500e+001 3.976830e+000
      vertex  5.105700e-001 4.436850e+001 3.977340e+000
      vertex  7.509120e-001 4.395170e+001 3.977730e+000
    endloop
  endfacet
  facet normal 2.499495e-004 1.079934e-003 9.999994e-001
    outer loop
      vertex  7.509120e-001 4.395170e+001 3.977730e+000
      vertex  9.916990e-001 4.436820e+001 3.977220e+000
      vertex  7.513890e-001 4.478500e+001 3.976830e+000
    endloop
  endfacet
  facet normal 2.290819e-004 1.091998e-003 9.999994e-001
    outer loop
      vertex  9.916990e-001 4.436820e+001 3.977220e+000
      vertex  7.509120e-001 4.395170e+001 3.977730e+000
      vertex  9.913320e-001 4.353490e+001 3.978130e+000
    endloop
  endfacet
  facet normal 2.296885e-004 1.091997e-003 9.999994e-001
    outer loop
      vertex  9.913320e-001 4.353490e+001 3.978130e+000
      vertex  1.232050e+000 4.395150e+001 3.977620e+000
      vertex  9.916990e-001 4.436820e+001 3.977220e+000
    endloop
  endfacet
  facet normal 2.282082e-004 1.091307e-003 9.999993e-001
    outer loop
      vertex  -9.344930e-001 4.270290e+001 3.979500e+000
      vertex  -1.174590e+000 4.311970e+001 3.979100e+000
      vertex  -1.510780e+000 4.253940e+001 3.979810e+000
    endloop
  endfacet
  facet normal 2.313842e-004 1.080113e-003 9.999993e-001
    outer loop
      vertex  -1.510780e+000 4.253940e+001 3.979810e+000
      vertex  -1.268620e+000 4.212640e+001 3.980200e+000
      vertex  -9.344930e-001 4.270290e+001 3.979500e+000
    endloop
  endfacet
  facet normal 2.292914e-004 1.091990e-003 9.999994e-001
    outer loop
      vertex  -6.933320e-001 4.311930e+001 3.978990e+000
      vertex  -9.335180e-001 4.353610e+001 3.978590e+000
      vertex  -1.174590e+000 4.311970e+001 3.979100e+000
    endloop
  endfacet
  facet normal 2.292913e-004 1.091931e-003 9.999994e-001
    outer loop
      vertex  -1.174590e+000 4.311970e+001 3.979100e+000
      vertex  -9.344930e-001 4.270290e+001 3.979500e+000
      vertex  -6.933320e-001 4.311930e+001 3.978990e+000
    endloop
  endfacet
  facet normal 2.404032e-004 1.074885e-003 9.999993e-001
    outer loop
      vertex  -6.942970e-001 4.228630e+001 3.979890e+000
      vertex  -9.344930e-001 4.270290e+001 3.979500e+000
      vertex  -1.268620e+000 4.212640e+001 3.980200e+000
    endloop
  endfacet
  facet normal 2.318725e-004 1.105526e-003 9.999993e-001
    outer loop
      vertex  -1.268620e+000 4.212640e+001 3.980200e+000
      vertex  -1.026310e+000 4.171370e+001 3.980600e+000
      vertex  -6.942970e-001 4.228630e+001 3.979890e+000
    endloop
  endfacet
  facet normal 2.502800e-004 1.079775e-003 9.999994e-001
    outer loop
      vertex  -4.530790e-001 4.270260e+001 3.979380e+000
      vertex  -6.933320e-001 4.311930e+001 3.978990e+000
      vertex  -9.344930e-001 4.270290e+001 3.979500e+000
    endloop
  endfacet
  facet normal 2.502805e-004 1.080580e-003 9.999994e-001
    outer loop
      vertex  -9.344930e-001 4.270290e+001 3.979500e+000
      vertex  -6.942970e-001 4.228630e+001 3.979890e+000
      vertex  -4.530790e-001 4.270260e+001 3.979380e+000
    endloop
  endfacet
  facet normal 2.420281e-004 1.099637e-003 9.999993e-001
    outer loop
      vertex  -4.539480e-001 4.186980e+001 3.980290e+000
      vertex  -6.942970e-001 4.228630e+001 3.979890e+000
      vertex  -1.026310e+000 4.171370e+001 3.980600e+000
    endloop
  endfacet
  facet normal 2.294010e-004 1.092678e-003 9.999994e-001
    outer loop
      vertex  -2.127010e-001 4.228600e+001 3.979780e+000
      vertex  -4.530790e-001 4.270260e+001 3.979380e+000
      vertex  -6.942970e-001 4.228630e+001 3.979890e+000
    endloop
  endfacet
  facet normal 2.294008e-004 1.092350e-003 9.999994e-001
    outer loop
      vertex  -6.942970e-001 4.228630e+001 3.979890e+000
      vertex  -4.539480e-001 4.186980e+001 3.980290e+000
      vertex  -2.127010e-001 4.228600e+001 3.979780e+000
    endloop
  endfacet
  facet normal 2.493692e-004 1.080776e-003 9.999994e-001
    outer loop
      vertex  2.783960e-002 4.186960e+001 3.980170e+000
      vertex  -2.127010e-001 4.228600e+001 3.979780e+000
      vertex  -4.539480e-001 4.186980e+001 3.980290e+000
    endloop
  endfacet
  facet normal 2.648086e-004 1.086157e-003 9.999993e-001
    outer loop
      vertex  -2.184080e+000 4.137820e+001 3.981240e+000
      vertex  -1.847290e+000 4.195900e+001 3.980520e+000
      vertex  -2.091370e+000 4.236840e+001 3.980140e+000
    endloop
  endfacet
  facet normal 2.135222e-004 1.090958e-003 9.999993e-001
    outer loop
      vertex  -2.091370e+000 4.236840e+001 3.980140e+000
      vertex  -2.430190e+000 4.178390e+001 3.980850e+000
      vertex  -2.184080e+000 4.137820e+001 3.981240e+000
    endloop
  endfacet
  facet normal 2.396329e-004 1.084378e-003 9.999993e-001
    outer loop
      vertex  -1.847290e+000 4.195900e+001 3.980520e+000
      vertex  -1.510780e+000 4.253940e+001 3.979810e+000
      vertex  -1.752870e+000 4.295260e+001 3.979420e+000
    endloop
  endfacet
  facet normal 2.587739e-004 1.082559e-003 9.999993e-001
    outer loop
      vertex  -1.752870e+000 4.295260e+001 3.979420e+000
      vertex  -2.091370e+000 4.236840e+001 3.980140e+000
      vertex  -1.847290e+000 4.195900e+001 3.980520e+000
    endloop
  endfacet
  facet normal 2.293450e-004 1.091754e-003 9.999994e-001
    outer loop
      vertex  -1.173710e+000 4.395300e+001 3.978190e+000
      vertex  -9.335180e-001 4.353610e+001 3.978590e+000
      vertex  -6.925650e-001 4.395260e+001 3.978080e+000
    endloop
  endfacet
  facet normal 2.293453e-004 1.092048e-003 9.999994e-001
    outer loop
      vertex  -6.925650e-001 4.395260e+001 3.978080e+000
      vertex  -9.328180e-001 4.436940e+001 3.977680e+000
      vertex  -1.173710e+000 4.395300e+001 3.978190e+000
    endloop
  endfacet
  facet normal 2.291277e-004 1.091922e-003 9.999994e-001
    outer loop
      vertex  -9.328180e-001 4.436940e+001 3.977680e+000
      vertex  -6.925650e-001 4.395260e+001 3.978080e+000
      vertex  -4.516890e-001 4.436910e+001 3.977570e+000
    endloop
  endfacet
  facet normal 2.291277e-004 1.091940e-003 9.999994e-001
    outer loop
      vertex  -4.516890e-001 4.436910e+001 3.977570e+000
      vertex  -6.919750e-001 4.478590e+001 3.977170e+000
      vertex  -9.328180e-001 4.436940e+001 3.977680e+000
    endloop
  endfacet
  facet normal 2.291305e-004 1.091942e-003 9.999994e-001
    outer loop
      vertex  -6.919750e-001 4.478590e+001 3.977170e+000
      vertex  -4.516890e-001 4.436910e+001 3.977570e+000
      vertex  -2.108520e-001 4.478560e+001 3.977060e+000
    endloop
  endfacet
  facet normal 2.291305e-004 1.091947e-003 9.999994e-001
    outer loop
      vertex  -2.108520e-001 4.478560e+001 3.977060e+000
      vertex  -4.511480e-001 4.520240e+001 3.976660e+000
      vertex  -6.919750e-001 4.478590e+001 3.977170e+000
    endloop
  endfacet
  facet normal 2.291309e-004 1.091948e-003 9.999994e-001
    outer loop
      vertex  -4.511480e-001 4.520240e+001 3.976660e+000
      vertex  -2.108520e-001 4.478560e+001 3.977060e+000
      vertex  2.997430e-002 4.520210e+001 3.976550e+000
    endloop
  endfacet
  facet normal 2.291309e-004 1.091947e-003 9.999994e-001
    outer loop
      vertex  2.997430e-002 4.520210e+001 3.976550e+000
      vertex  -2.103210e-001 4.561890e+001 3.976150e+000
      vertex  -4.511480e-001 4.520240e+001 3.976660e+000
    endloop
  endfacet
  facet normal 2.572748e-004 1.084686e-003 9.999993e-001
    outer loop
      vertex  1.567320e+000 4.253740e+001 3.979080e+000
      vertex  1.324630e+000 4.212480e+001 3.979590e+000
      vertex  1.658320e+000 4.154780e+001 3.980130e+000
    endloop
  endfacet
  facet normal 2.348853e-004 1.082627e-003 9.999993e-001
    outer loop
      vertex  1.658320e+000 4.154780e+001 3.980130e+000
      vertex  1.903080e+000 4.195650e+001 3.979630e+000
      vertex  1.567320e+000 4.253740e+001 3.979080e+000
    endloop
  endfacet
  facet normal 2.391428e-004 1.084662e-003 9.999993e-001
    outer loop
      vertex  -1.268620e+000 4.212640e+001 3.980200e+000
      vertex  -1.510780e+000 4.253940e+001 3.979810e+000
      vertex  -1.847290e+000 4.195900e+001 3.980520e+000
    endloop
  endfacet
  facet normal 2.362930e-004 1.094513e-003 9.999993e-001
    outer loop
      vertex  -1.847290e+000 4.195900e+001 3.980520e+000
      vertex  -1.603050e+000 4.154990e+001 3.980910e+000
      vertex  -1.268620e+000 4.212640e+001 3.980200e+000
    endloop
  endfacet
  facet normal 2.246346e-004 1.101276e-003 9.999993e-001
    outer loop
      vertex  -1.026310e+000 4.171370e+001 3.980600e+000
      vertex  -1.268620e+000 4.212640e+001 3.980200e+000
      vertex  -1.603050e+000 4.154990e+001 3.980910e+000
    endloop
  endfacet
  facet normal 2.432428e-004 1.098662e-003 9.999993e-001
    outer loop
      vertex  -1.603050e+000 4.154990e+001 3.980910e+000
      vertex  -1.847290e+000 4.195900e+001 3.980520e+000
      vertex  -2.184080e+000 4.137820e+001 3.981240e+000
    endloop
  endfacet
  facet normal 2.291142e-004 1.091887e-003 9.999994e-001
    outer loop
      vertex  -6.925650e-001 4.395260e+001 3.978080e+000
      vertex  -9.335180e-001 4.353610e+001 3.978590e+000
      vertex  -6.933320e-001 4.311930e+001 3.978990e+000
    endloop
  endfacet
  facet normal 2.290561e-004 1.091888e-003 9.999994e-001
    outer loop
      vertex  -6.933320e-001 4.311930e+001 3.978990e+000
      vertex  -4.523180e-001 4.353580e+001 3.978480e+000
      vertex  -6.925650e-001 4.395260e+001 3.978080e+000
    endloop
  endfacet
  facet normal 2.291218e-004 1.091925e-003 9.999994e-001
    outer loop
      vertex  -4.516890e-001 4.436910e+001 3.977570e+000
      vertex  -6.925650e-001 4.395260e+001 3.978080e+000
      vertex  -4.523180e-001 4.353580e+001 3.978480e+000
    endloop
  endfacet
  facet normal 2.707094e-004 1.091894e-003 9.999994e-001
    outer loop
      vertex  -4.523180e-001 4.353580e+001 3.978480e+000
      vertex  -2.114080e-001 4.395230e+001 3.977960e+000
      vertex  -4.516890e-001 4.436910e+001 3.977570e+000
    endloop
  endfacet
  facet normal 2.499299e-004 1.079915e-003 9.999994e-001
    outer loop
      vertex  -2.108520e-001 4.478560e+001 3.977060e+000
      vertex  -4.516890e-001 4.436910e+001 3.977570e+000
      vertex  -2.114080e-001 4.395230e+001 3.977960e+000
    endloop
  endfacet
  facet normal 2.509090e-004 1.079914e-003 9.999994e-001
    outer loop
      vertex  -2.114080e-001 4.395230e+001 3.977960e+000
      vertex  2.944050e-002 4.436880e+001 3.977450e+000
      vertex  -2.108520e-001 4.478560e+001 3.977060e+000
    endloop
  endfacet
  facet normal 2.504249e-004 1.079635e-003 9.999994e-001
    outer loop
      vertex  2.997430e-002 4.520210e+001 3.976550e+000
      vertex  -2.108520e-001 4.478560e+001 3.977060e+000
      vertex  2.944050e-002 4.436880e+001 3.977450e+000
    endloop
  endfacet
  facet normal 2.504247e-004 1.079635e-003 9.999994e-001
    outer loop
      vertex  2.944050e-002 4.436880e+001 3.977450e+000
      vertex  2.702670e-001 4.478530e+001 3.976940e+000
      vertex  2.997430e-002 4.520210e+001 3.976550e+000
    endloop
  endfacet
  facet normal 2.501339e-004 1.079691e-003 9.999994e-001
    outer loop
      vertex  -4.523180e-001 4.353580e+001 3.978480e+000
      vertex  -6.933320e-001 4.311930e+001 3.978990e+000
      vertex  -4.530790e-001 4.270260e+001 3.979380e+000
    endloop
  endfacet
  facet normal 2.505362e-004 1.079690e-003 9.999994e-001
    outer loop
      vertex  -4.530790e-001 4.270260e+001 3.979380e+000
      vertex  -2.120240e-001 4.311900e+001 3.978870e+000
      vertex  -4.523180e-001 4.353580e+001 3.978480e+000
    endloop
  endfacet
  facet normal 2.712060e-004 1.091607e-003 9.999994e-001
    outer loop
      vertex  -2.114080e-001 4.395230e+001 3.977960e+000
      vertex  -4.523180e-001 4.353580e+001 3.978480e+000
      vertex  -2.120240e-001 4.311900e+001 3.978870e+000
    endloop
  endfacet
  facet normal 2.295674e-004 1.091638e-003 9.999994e-001
    outer loop
      vertex  -2.120240e-001 4.311900e+001 3.978870e+000
      vertex  2.890670e-002 4.353550e+001 3.978360e+000
      vertex  -2.114080e-001 4.395230e+001 3.977960e+000
    endloop
  endfacet
  facet normal 2.301023e-004 1.091946e-003 9.999994e-001
    outer loop
      vertex  2.944050e-002 4.436880e+001 3.977450e+000
      vertex  -2.114080e-001 4.395230e+001 3.977960e+000
      vertex  2.890670e-002 4.353550e+001 3.978360e+000
    endloop
  endfacet
  facet normal 2.291115e-004 1.091947e-003 9.999994e-001
    outer loop
      vertex  2.890670e-002 4.353550e+001 3.978360e+000
      vertex  2.697550e-001 4.395200e+001 3.977850e+000
      vertex  2.944050e-002 4.436880e+001 3.977450e+000
    endloop
  endfacet
  facet normal 2.291219e-004 1.091953e-003 9.999994e-001
    outer loop
      vertex  2.702670e-001 4.478530e+001 3.976940e+000
      vertex  2.944050e-002 4.436880e+001 3.977450e+000
      vertex  2.697550e-001 4.395200e+001 3.977850e+000
    endloop
  endfacet
  facet normal 2.291329e-004 1.091953e-003 9.999994e-001
    outer loop
      vertex  2.697550e-001 4.395200e+001 3.977850e+000
      vertex  5.105700e-001 4.436850e+001 3.977340e+000
      vertex  2.702670e-001 4.478530e+001 3.976940e+000
    endloop
  endfacet
  facet normal 2.287496e-004 1.092303e-003 9.999994e-001
    outer loop
      vertex  -2.120240e-001 4.311900e+001 3.978870e+000
      vertex  -4.530790e-001 4.270260e+001 3.979380e+000
      vertex  -2.127010e-001 4.228600e+001 3.979780e+000
    endloop
  endfacet
  facet normal 2.291815e-004 1.092302e-003 9.999994e-001
    outer loop
      vertex  -2.127010e-001 4.228600e+001 3.979780e+000
      vertex  2.837300e-002 4.270230e+001 3.979270e+000
      vertex  -2.120240e-001 4.311900e+001 3.978870e+000
    endloop
  endfacet
  facet normal 2.287994e-004 1.092082e-003 9.999994e-001
    outer loop
      vertex  2.890670e-002 4.353550e+001 3.978360e+000
      vertex  -2.120240e-001 4.311900e+001 3.978870e+000
      vertex  2.837300e-002 4.270230e+001 3.979270e+000
    endloop
  endfacet
  facet normal 2.292675e-004 1.092082e-003 9.999994e-001
    outer loop
      vertex  2.837300e-002 4.270230e+001 3.979270e+000
      vertex  2.693030e-001 4.311870e+001 3.978760e+000
      vertex  2.890670e-002 4.353550e+001 3.978360e+000
    endloop
  endfacet
  facet normal 2.290726e-004 1.091969e-003 9.999994e-001
    outer loop
      vertex  2.697550e-001 4.395200e+001 3.977850e+000
      vertex  2.890670e-002 4.353550e+001 3.978360e+000
      vertex  2.693030e-001 4.311870e+001 3.978760e+000
    endloop
  endfacet
  facet normal 2.290919e-004 1.091969e-003 9.999994e-001
    outer loop
      vertex  2.693030e-001 4.311870e+001 3.978760e+000
      vertex  5.101310e-001 4.353520e+001 3.978250e+000
      vertex  2.697550e-001 4.395200e+001 3.977850e+000
    endloop
  endfacet
  facet normal 2.290982e-004 1.091973e-003 9.999994e-001
    outer loop
      vertex  5.105700e-001 4.436850e+001 3.977340e+000
      vertex  2.697550e-001 4.395200e+001 3.977850e+000
      vertex  5.101310e-001 4.353520e+001 3.978250e+000
    endloop
  endfacet
  facet normal 2.707563e-004 1.091951e-003 9.999993e-001
    outer loop
      vertex  5.101310e-001 4.353520e+001 3.978250e+000
      vertex  7.509120e-001 4.395170e+001 3.977730e+000
      vertex  5.105700e-001 4.436850e+001 3.977340e+000
    endloop
  endfacet
  facet normal 2.492275e-004 1.080694e-003 9.999994e-001
    outer loop
      vertex  2.837300e-002 4.270230e+001 3.979270e+000
      vertex  -2.127010e-001 4.228600e+001 3.979780e+000
      vertex  2.783960e-002 4.186960e+001 3.980170e+000
    endloop
  endfacet
  facet normal 2.501174e-004 1.080693e-003 9.999994e-001
    outer loop
      vertex  2.783960e-002 4.186960e+001 3.980170e+000
      vertex  2.689140e-001 4.228570e+001 3.979660e+000
      vertex  2.837300e-002 4.270230e+001 3.979270e+000
    endloop
  endfacet
  facet normal 2.495329e-004 1.080356e-003 9.999994e-001
    outer loop
      vertex  2.693030e-001 4.311870e+001 3.978760e+000
      vertex  2.837300e-002 4.270230e+001 3.979270e+000
      vertex  2.689140e-001 4.228570e+001 3.979660e+000
    endloop
  endfacet
  facet normal 2.499977e-004 1.080356e-003 9.999994e-001
    outer loop
      vertex  2.689140e-001 4.228570e+001 3.979660e+000
      vertex  5.098250e-001 4.270200e+001 3.979150e+000
      vertex  2.693030e-001 4.311870e+001 3.978760e+000
    endloop
  endfacet
  facet normal 2.495870e-004 1.080119e-003 9.999994e-001
    outer loop
      vertex  5.101310e-001 4.353520e+001 3.978250e+000
      vertex  2.693030e-001 4.311870e+001 3.978760e+000
      vertex  5.098250e-001 4.270200e+001 3.979150e+000
    endloop
  endfacet
  facet normal 2.500747e-004 1.080118e-003 9.999994e-001
    outer loop
      vertex  5.098250e-001 4.270200e+001 3.979150e+000
      vertex  7.506120e-001 4.311840e+001 3.978640e+000
      vertex  5.101310e-001 4.353520e+001 3.978250e+000
    endloop
  endfacet
  facet normal 2.706695e-004 1.092001e-003 9.999993e-001
    outer loop
      vertex  7.509120e-001 4.395170e+001 3.977730e+000
      vertex  5.101310e-001 4.353520e+001 3.978250e+000
      vertex  7.506120e-001 4.311840e+001 3.978640e+000
    endloop
  endfacet
  facet normal 2.291138e-004 1.092016e-003 9.999994e-001
    outer loop
      vertex  7.506120e-001 4.311840e+001 3.978640e+000
      vertex  9.913320e-001 4.353490e+001 3.978130e+000
      vertex  7.509120e-001 4.395170e+001 3.977730e+000
    endloop
  endfacet
endsolid vcg
